<?xml version="1.0" encoding="UTF-8" standalone="no"?>
<!-- Generator: Adobe Illustrator 21.1.0, SVG Export Plug-In . SVG Version: 6.00 Build 0)  -->

<svg
   version="1.1"
   id="Layer_1"
   x="0px"
   y="0px"
   viewBox="0 0 362 535.3"
   style="enable-background:new 0 0 362 535.3;"
   xml:space="preserve"
   sodipodi:docname="lazada.svg"
   inkscape:version="1.2.1 (9c6d41e410, 2022-07-14)"
   xmlns:inkscape="http://www.inkscape.org/namespaces/inkscape"
   xmlns:sodipodi="http://sodipodi.sourceforge.net/DTD/sodipodi-0.dtd"
   xmlns="http://www.w3.org/2000/svg"
   xmlns:svg="http://www.w3.org/2000/svg"><defs
   id="defs291"><linearGradient
     id="a"
     gradientUnits="userSpaceOnUse"
     x1="-0.001"
     x2="66.758003"
     y1="0.5"
     y2="-0.017000001"
     gradientTransform="matrix(4.543317,0,0,4.543317,32.214088,103.28476)"><stop
       offset="0"
       stop-color="#ffb900"
       id="stop2" /><stop
       offset=".338"
       stop-color="#f38000"
       id="stop4" /><stop
       offset=".567"
       stop-color="#f83c72"
       id="stop6" /><stop
       offset=".78"
       stop-color="#fc1cbe"
       id="stop8" /><stop
       offset=".93"
       stop-color="#fe08ed"
       id="stop10" /><stop
       offset="1"
       stop-color="#f0f"
       id="stop12" /></linearGradient><linearGradient
     id="b"
     gradientUnits="userSpaceOnUse"
     x1="18.754"
     x2="86.818001"
     y1="49.006001"
     y2="11.32"
     gradientTransform="matrix(4.543317,0,0,4.543317,32.214088,103.28476)"><stop
       offset="0"
       stop-color="#ee0a3f"
       id="stop15" /><stop
       offset="1"
       stop-color="#ee0a3f"
       stop-opacity="0"
       id="stop17" /></linearGradient><linearGradient
     id="c"
     gradientUnits="userSpaceOnUse"
     x1="41.792999"
     x2="75.037003"
     y1="39.348999"
     y2="12.569"
     gradientTransform="matrix(-4.4949213,0,0,4.4949213,335.36935,104.44552)"><stop
       offset="0"
       stop-color="#ed6600"
       id="stop20" /><stop
       offset="1"
       stop-color="#f98200"
       id="stop22" /></linearGradient></defs><sodipodi:namedview
   id="namedview289"
   pagecolor="#ffffff"
   bordercolor="#000000"
   borderopacity="0.25"
   inkscape:showpageshadow="2"
   inkscape:pageopacity="0.0"
   inkscape:pagecheckerboard="0"
   inkscape:deskcolor="#d1d1d1"
   showgrid="false"
   inkscape:zoom="0.6977396"
   inkscape:cx="7.8825969"
   inkscape:cy="335.36867"
   inkscape:window-width="1760"
   inkscape:window-height="927"
   inkscape:window-x="-8"
   inkscape:window-y="-8"
   inkscape:window-maximized="1"
   inkscape:current-layer="Layer_1" />
<style
   type="text/css"
   id="style268">
	.st0{fill:#EA501F;}
	.st1{fill:#FFFFFF;}
</style>









<g
   id="g574"
   transform="translate(-4.4230928,-18)"><path
     d="m 185.49197,351.8769 c -2.17625,0.0137 -4.31615,-0.5452 -6.20617,-1.61287 C 163.08887,340.89116 43.136228,265.68109 38.606538,263.38671 a 10.858528,10.858528 0 0 1 -6.21072,-8.68682 V 149.20407 a 11.417356,11.417356 0 0 1 5.15667,-9.79994 l 0.86323,-0.49522 c 11.60817,-7.20116 50.45353,-30.90819 56.60064,-34.32021 a 9.3138002,9.3138002 0 0 1 4.65235,-1.30393 c 1.535642,0.0182 3.044032,0.3998 4.407022,1.11765 0,0 54.35624,35.43333 62.67505,38.59548 a 42.879826,42.879826 0 0 0 18.61397,3.90725 41.698565,41.698565 0 0 0 20.85384,-5.08851 c 8.12345,-4.27527 60.06719,-37.2234 60.62148,-37.2234 1.30847,-0.79053 2.81685,-1.19943 4.3434,-1.18126 1.64014,0.009 3.24848,0.45887 4.65236,1.30393 7.07394,3.90725 55.22856,33.3843 57.27761,34.68822 a 11.167473,11.167473 0 0 1 5.39746,9.68182 v 105.49128 a 10.735858,10.735858 0 0 1 -6.20163,8.68681 c -4.52969,2.48066 -124.1098,77.69072 -140.61568,86.87731 a 12.412342,12.412342 0 0 1 -6.20617,1.73555"
     fill="url(#a)"
     id="path29"
     style="fill:url(#a);stroke-width:4.54332" /><path
     d="m 184.86954,351.8769 h 0.62243 c 2.1717,0.0137 4.31615,-0.5452 6.20162,-1.61287 16.19693,-9.37287 136.09053,-84.58294 140.61568,-86.87732 a 10.735858,10.735858 0 0 0 6.20617,-8.68682 V 149.20407 a 11.2856,11.2856 0 0 0 -1.17672,-5.14757 l -152.46918,83.71061 z"
     fill="url(#b)"
     id="path31"
     style="fill:url(#b);stroke-width:4.54332" /><path
     d="m 184.33998,350.38964 h -0.6158 c -2.14857,0.0135 -4.27018,-0.53939 -6.13557,-1.5957 C 161.56421,339.52093 42.947738,265.112 38.470798,262.84206 a 10.621499,10.621499 0 0 1 -6.14006,-8.59429 V 149.8757 a 11.165385,11.165385 0 0 1 1.16418,-5.09275 l 150.845062,82.81892 z"
     fill="url(#c)"
     id="path33"
     style="fill:url(#c);stroke-width:4.49493" /></g><g
   fill="#000083"
   stroke-linecap="square"
   stroke-linejoin="bevel"
   id="g27"
   transform="matrix(1.299916,0,0,1.299916,-180.9639,400.22928)"><path
     d="m 146.61952,10.31319 h 10.1009 v 48.599288 h 17.41084 v 9.593352 h -27.46935 z m 50.90334,14.579677 a 17.1174,17.1174 0 0 1 13.71457,6.592645 v -5.72645 h 9.42273 v 42.83154 h -9.42273 v -5.727537 a 17.1174,17.1174 0 0 1 -13.71565,6.592645 c -11.74852,0 -20.66478,-10.036774 -20.66478,-22.291746 0,-12.256059 8.91735,-22.272183 20.66586,-22.272183 m 1.71174,8.579349 c -7.62838,0 -12.67883,6.001415 -12.67883,13.692834 0,7.691418 5.13414,13.713483 12.67883,13.713483 7.54362,0 12.67884,-6.001415 12.67884,-13.713483 0,-7.713155 -5.05154,-13.69392 -12.67884,-13.69392 m 28.75832,27.682368 22.46129,-26.83465 h -22.12437 v -8.5587 h 34.29457 v 7.543611 l -22.37543,26.730315 h 22.88298 v 8.557614 h -35.13904 z m 59.10123,-36.259545 a 17.115227,17.115227 0 0 1 13.71348,6.592645 v -5.72645 h 9.42381 v 42.83154 h -9.42381 v -5.727537 a 17.115227,17.115227 0 0 1 -13.71348,6.592645 c -11.74852,0 -20.64522,-10.036774 -20.64522,-22.291746 0,-12.256059 8.89779,-22.272183 20.64522,-22.272183 m 1.71174,8.579349 c -7.62947,0 -12.67884,6.001415 -12.67884,13.692834 0,7.691418 5.13522,13.713483 12.67884,13.713483 7.54361,0 12.67774,-6.001415 12.67774,-13.713483 0,-7.713155 -5.04936,-13.69392 -12.67774,-13.69392 m 48.34605,-8.577177 a 17.054365,17.054365 0 0 1 13.69284,6.592645 V 6.8701468 h 9.42272 V 68.590602 h -9.42272 v -5.725363 a 17.054365,17.054365 0 0 1 -13.69284,6.592644 c -11.74851,0 -20.66586,-10.036774 -20.66586,-22.291746 0,-12.256058 8.91735,-22.272183 20.66586,-22.272183 m 1.71066,8.57935 c -7.62839,0 -12.67775,6.001415 -12.67775,13.692833 0,7.691419 5.15587,13.713484 12.67775,13.713484 7.52405,0 12.67883,-6.001415 12.67883,-13.713484 0,-7.713154 -5.05045,-13.69392 -12.67883,-13.69392 m 48.32541,-8.57935 a 17.052191,17.052191 0 0 1 13.69283,6.592645 v -5.72645 h 9.40316 v 42.83154 h -9.44446 v -5.727537 a 17.054365,17.054365 0 0 1 -13.69392,6.592645 c -11.74851,0 -20.66478,-10.036774 -20.66478,-22.291746 0,-12.256059 8.95865,-22.272183 20.70717,-22.272183 m 1.71282,8.579349 c -7.62947,0 -12.67991,6.001415 -12.67991,13.692834 0,7.691418 5.15587,13.713483 12.67991,13.713483 7.52079,0 12.67775,-6.001415 12.67775,-13.713483 0,-7.713155 -5.05154,-13.69392 -12.67775,-13.69392"
     id="path25"
     style="stroke-width:1.08682" /></g></svg>
